HIERARCHY
ROOT hip
{
  OFFSET 0 0 0
  CHANNELS 6 Xposition Yposition Zposition Zrotation Yrotation Xrotation
  JOINT abdomen
  {
    OFFSET 0 20.6881 -0.73152
    CHANNELS 3 Zrotation Xrotation Yrotation
    JOINT chest
    {
      OFFSET 0 11.7043 -0.48768
      CHANNELS 3 Zrotation Xrotation Yrotation
      JOINT neck
      {
        OFFSET 0 22.1894 -2.19456
        CHANNELS 3 Zrotation Xrotation Yrotation
        JOINT head
        {
          OFFSET -0.24384 7.07133 1.2192
          CHANNELS 3 Zrotation Xrotation Yrotation
          JOINT leftEye
          {
            OFFSET 4.14528 8.04674 8.04672
            CHANNELS 3 Zrotation Xrotation Yrotation
            End Site
            {
              OFFSET 1 0 0
            }
          }
          JOINT rightEye
          {
            OFFSET -3.6576 8.04674 8.04672
            CHANNELS 3 Zrotation Xrotation Yrotation
            End Site
            {
              OFFSET 1 0 0
            }
          }
        }
      }
      JOINT rCollar
      {
        OFFSET -2.68224 19.2634 -4.8768
        CHANNELS 3 Zrotation Xrotation Yrotation
        JOINT rShldr
        {
          OFFSET -8.77824 -1.95073 1.46304
          CHANNELS 3 Zrotation Xrotation Yrotation
          JOINT rForeArm
          {
            OFFSET -28.1742 -1.7115 0.48768
            CHANNELS 3 Zrotation Xrotation Yrotation
            JOINT rHand
            {
              OFFSET -22.5879 0.773209 7.07136
              CHANNELS 3 Zrotation Xrotation Yrotation
              JOINT rThumb1
              {
                OFFSET -1.2192 -0.487915 3.41376
                CHANNELS 3 Zrotation Xrotation Yrotation
                JOINT rThumb2
                {
                  OFFSET -3.37035 -0.52449 3.41376
                  CHANNELS 3 Zrotation Xrotation Yrotation
                  End Site
                  {
                    OFFSET -1.78271 -1.18214 1.43049
                  }
                }
              }
              JOINT rIndex1
              {
                OFFSET -7.75947 0.938293 5.60832
                CHANNELS 3 Zrotation Xrotation Yrotation
                JOINT rIndex2
                {
                  OFFSET -2.54057 -0.884171 1.56538
                  CHANNELS 3 Zrotation Xrotation Yrotation
                  End Site
                  {
                    OFFSET -1.62519 -0.234802 1.16502
                  }
                }
              }
              JOINT rMid1
              {
                OFFSET -8.24714 1.18213 3.41376
                CHANNELS 3 Zrotation Xrotation Yrotation
                JOINT rMid2
                {
                  OFFSET -3.10165 -0.590103 1.0647
                  CHANNELS 3 Zrotation Xrotation Yrotation
                  End Site
                  {
                    OFFSET -2.48547 -0.328903 0.83742
                  }
                }
              }
              JOINT rRing1
              {
                OFFSET -8.82822 0.546677 1.51678
                CHANNELS 3 Zrotation Xrotation Yrotation
                JOINT rRing2
                {
                  OFFSET -2.60934 -0.819778 -0.0198488
                  CHANNELS 3 Zrotation Xrotation Yrotation
                  End Site
                  {
                    OFFSET -2.33842 -0.294052 0.168128
                  }
                }
              }
              JOINT rPinky1
              {
                OFFSET -8.27202 -0.0477905 -0.4584
                CHANNELS 3 Zrotation Xrotation Yrotation
                JOINT rPinky2
                {
                  OFFSET -1.82734 -0.647385 -0.700984
                  CHANNELS 3 Zrotation Xrotation Yrotation
                  End Site
                  {
                    OFFSET -1.69225 -0.51767 -0.607171
                  }
                }
              }
            }
          }
        }
      }
      JOINT lCollar
      {
        OFFSET 2.68224 19.2634 -4.8768
        CHANNELS 3 Zrotation Xrotation Yrotation
        JOINT lShldr
        {
          OFFSET 8.77824 -1.95073 1.46304
          CHANNELS 3 Zrotation Xrotation Yrotation
          JOINT lForeArm
          {
            OFFSET 28.1742 -1.7115 0.48768
            CHANNELS 3 Zrotation Xrotation Yrotation
            JOINT lHand
            {
              OFFSET 22.5879 0.773209 7.07136
              CHANNELS 3 Zrotation Xrotation Yrotation
              JOINT lThumb1
              {
                OFFSET 1.2192 -0.487915 3.41376
                CHANNELS 3 Zrotation Xrotation Yrotation
                JOINT lThumb2
                {
                  OFFSET 3.37035 -0.52449 3.41376
                  CHANNELS 3 Zrotation Xrotation Yrotation
                  End Site
                  {
                    OFFSET 1.78271 -1.18214 1.43049
                  }
                }
              }
              JOINT lIndex1
              {
                OFFSET 7.75947 0.938293 5.60832
                CHANNELS 3 Zrotation Xrotation Yrotation
                JOINT lIndex2
                {
                  OFFSET 2.54057 -0.884171 1.56538
                  CHANNELS 3 Zrotation Xrotation Yrotation
                  End Site
                  {
                    OFFSET 1.62519 -0.234802 1.16502
                  }
                }
              }
              JOINT lMid1
              {
                OFFSET 8.24714 1.18213 3.41376
                CHANNELS 3 Zrotation Xrotation Yrotation
                JOINT lMid2
                {
                  OFFSET 3.10165 -0.590103 1.0647
                  CHANNELS 3 Zrotation Xrotation Yrotation
                  End Site
                  {
                    OFFSET 2.48547 -0.328903 0.83742
                  }
                }
              }
              JOINT lRing1
              {
                OFFSET 8.82822 0.546677 1.51678
                CHANNELS 3 Zrotation Xrotation Yrotation
                JOINT lRing2
                {
                  OFFSET 2.60934 -0.819778 -0.0198488
                  CHANNELS 3 Zrotation Xrotation Yrotation
                  End Site
                  {
                    OFFSET 2.33842 -0.294052 0.168128
                  }
                }
              }
              JOINT lPinky1
              {
                OFFSET 8.27202 -0.0477905 -0.4584
                CHANNELS 3 Zrotation Xrotation Yrotation
                JOINT lPinky2
                {
                  OFFSET 1.82734 -0.647385 -0.700984
                  CHANNELS 3 Zrotation Xrotation Yrotation
                  End Site
                  {
                    OFFSET 1.69225 -0.51767 -0.607171
                  }
                }
              }
            }
          }
        }
      }
    }
  }
  JOINT rButtock
  {
    OFFSET -8.77824 4.35084 1.2192
    CHANNELS 3 Zrotation Xrotation Yrotation
    JOINT rThigh
    {
      OFFSET 0 -1.70687 -2.19456
      CHANNELS 3 Zrotation Xrotation Yrotation
      JOINT rShin
      {
        OFFSET 0 -36.8199 0.73152
        CHANNELS 3 Zrotation Xrotation Yrotation
        JOINT rFoot
        {
          OFFSET 0.73152 -45.1104 -5.12064
          CHANNELS 3 Zrotation Xrotation Yrotation
          End Site
          {
            OFFSET -1.1221 -3.69964 12.103
          }
        }
      }
    }
  }
  JOINT lButtock
  {
    OFFSET 8.77824 4.35084 1.2192
    CHANNELS 3 Zrotation Xrotation Yrotation
    JOINT lThigh
    {
      OFFSET 0 -1.70687 -2.19456
      CHANNELS 3 Zrotation Xrotation Yrotation
      JOINT lShin
      {
        OFFSET 0 -36.8199 0.73152
        CHANNELS 3 Zrotation Xrotation Yrotation
        JOINT lFoot
        {
          OFFSET -0.73152 -45.1104 -5.12064
          CHANNELS 3 Zrotation Xrotation Yrotation
          End Site
          {
            OFFSET 1.1221 -3.69964 12.103
          }
        }
      }
    }
  }
}
MOTION
Frames:	7
Frame Time:	0.00833333
1.12404 115.477 -36.3646 -1.1298 1.0006 8.7401 -1.71093 9.84019 -3.86253 3.8791 -0.70472 -1.0674 -1.14914 3.24846 1.18532 -1.11591 10.5182 2.59382 -0.0 0.0 0.0 -0.0 0.0 0.0 1.46779e-14 2.17671e-13 -5.96975e-15 78.2573 15.3111 5.37104 -12.0823 -5.5063 21.7696 -1.26921 30.2277 4.69706 2.1534e-09 -1.09757e-10 -1.89286e-09 3.67372e-09 -1.52832e-10 -3.31994e-09 2.15341e-09 -1.09758e-10 -1.89286e-09 7.73091 5.47488 0.417314 2.1534e-09 -1.09759e-10 -1.89286e-09 2.90554 0.965183 0.102902 2.15341e-09 -1.09759e-10 -1.89286e-09 10.2786 0.731801 0.0259123 2.15339e-09 -1.09756e-10 -1.89284e-09 2.22167 -0.733487 -0.20892 1.4619e-14 2.17667e-13 -6.15611e-15 -63.3367 32.6409 -26.2297 10.7802 -4.62916 -19.273 0.565057 -20.8502 3.06849 4.80395e-10 2.1895e-09 1.31958e-09 8.19496e-10 3.78176e-09 2.2825e-09 4.80392e-10 2.1895e-09 1.31958e-09 -7.73091 5.47488 -0.417314 4.80393e-10 2.18949e-09 1.31957e-09 -2.90554 0.965183 -0.102902 4.80394e-10 2.1895e-09 1.31957e-09 -10.2786 0.731801 -0.0259123 4.80399e-10 2.1895e-09 1.31956e-09 -2.22167 -0.733487 0.20892 -2.03217e-16 0.0 -3.88251e-19 -7.12532 -37.4556 -11.331 -0.327973 36.9672 0.401565 0.85613 21.8116 -4.20863 2.03217e-16 0.0 3.88251e-19 10.0542 -35.8781 14.8629 0.151297 31.9581 -0.491693 1.03835 19.3218 -2.50818
1.11671 115.088 -35.6884 -1.1429 1.087 8.5819 -1.6317 10.061 -3.94831 3.92393 -0.762285 -1.0858 -1.06678 3.1424 1.19095 -1.19167 10.7674 2.59702 -0.0 0.0 0.0 -0.0 0.0 0.0 1.30285e-14 1.77989e-13 -1.60814e-14 78.5417 15.289 5.03614 -12.0161 -5.45975 21.6414 -1.28116 30.3529 4.72075 1.95544e-09 -7.3466e-11 -1.79397e-09 3.33362e-09 -9.34614e-11 -3.14505e-09 1.95544e-09 -7.34635e-11 -1.79398e-09 7.73091 5.47488 0.417314 1.95544e-09 -7.34616e-11 -1.79397e-09 2.90554 0.965183 0.102902 1.95544e-09 -7.34618e-11 -1.79397e-09 10.2786 0.731801 0.0259123 1.95543e-09 -7.3457e-11 -1.79395e-09 2.22167 -0.733487 -0.20892 1.2948e-14 1.77984e-13 -1.62708e-14 -63.7892 32.4309 -26.0236 10.5655 -4.49199 -18.8665 0.542638 -20.4556 3.00504 1.87032e-10 1.78882e-09 1.21339e-09 3.13155e-10 3.08923e-09 2.0953e-09 1.87031e-10 1.78882e-09 1.2134e-09 -7.73091 5.47488 -0.417314 1.87028e-10 1.78882e-09 1.21337e-09 -2.90554 0.965183 -0.102902 1.87033e-10 1.78882e-09 1.21338e-09 -10.2786 0.731801 -0.0259123 1.87035e-10 1.78882e-09 1.21337e-09 -2.22167 -0.733487 0.20892 -2.03217e-16 0.0 -3.88251e-19 -7.12823 -37.4306 -11.3536 -0.302941 35.5396 0.375834 0.773911 21.6257 -3.95288 2.03217e-16 0.0 3.88251e-19 10.1429 -36.1004 15.0008 0.14751 31.6306 -0.48821 0.980953 19.2628 -2.31602
1.10351 114.637 -34.9919 -1.1911 1.1885 8.4224 -1.50792 10.1947 -4.02078 3.9405 -0.774297 -1.10137 -0.985491 3.08113 1.19222 -1.26209 11.0141 2.59116 -0.0 0.0 0.0 -0.0 0.0 0.0 1.27653e-14 1.46308e-13 -2.37548e-14 78.8344 15.1635 4.71062 -11.9386 -5.40567 21.4911 -1.29023 30.4472 4.73863 1.67675e-09 -4.71899e-11 -1.5874e-09 2.85683e-09 -5.28004e-11 -2.78187e-09 1.67675e-09 -4.71843e-11 -1.58741e-09 7.73091 5.47488 0.417314 1.67675e-09 -4.71812e-11 -1.58741e-09 2.90554 0.965183 0.102902 1.67675e-09 -4.71811e-11 -1.5874e-09 10.2786 0.731801 0.0259123 1.67674e-09 -4.71756e-11 -1.58739e-09 2.22167 -0.733487 -0.20892 1.268e-14 1.46303e-13 -2.39536e-14 -64.2614 32.1776 -25.8022 10.343 -4.35241 -18.4463 0.517309 -20.0035 2.93267 -1.09825e-11 1.39943e-09 1.01439e-09 -2.72951e-11 2.41687e-09 1.74899e-09 -1.09817e-11 1.39943e-09 1.0144e-09 -7.73091 5.47488 -0.417314 -1.09872e-11 1.39942e-09 1.01437e-09 -2.90554 0.965183 -0.102902 -1.09811e-11 1.39943e-09 1.01438e-09 -10.2786 0.731801 -0.0259123 -1.09791e-11 1.39943e-09 1.01437e-09 -2.22167 -0.733487 0.20892 -2.03217e-16 0.0 -3.88251e-19 -7.0741 -37.329 -11.3088 -0.279544 34.0988 0.349465 0.717004 21.5185 -3.7629 2.03217e-16 0.0 3.88251e-19 10.24 -36.2505 15.0896 0.142685 31.2371 -0.482775 0.934523 19.2028 -2.16152
1.08429 114.124 -34.273 -1.2724 1.2925 8.2627 -1.31456 10.2258 -4.0795 3.92272 -0.732991 -1.1138 -0.895546 3.06837 1.1868 -1.33323 11.2514 2.57033 -0.0 0.0 0.0 -0.0 0.0 0.0 1.48137e-14 1.18551e-13 -2.87329e-14 79.1456 14.8926 4.39128 -11.8489 -5.3433 21.3178 -1.292 30.4644 4.74196 1.1803e-09 -3.41869e-11 -1.12944e-09 2.0103e-09 -3.86821e-11 -1.97865e-09 1.1803e-09 -3.41794e-11 -1.12945e-09 7.73091 5.47488 0.417314 1.18029e-09 -3.41766e-11 -1.12945e-09 2.90554 0.965183 0.102902 1.1803e-09 -3.41763e-11 -1.12944e-09 10.2786 0.731801 0.0259123 1.18029e-09 -3.41716e-11 -1.12943e-09 2.22167 -0.733487 -0.20892 1.47534e-14 1.18549e-13 -2.89531e-14 -64.7529 31.879 -25.5734 10.1098 -4.2087 -18.0072 0.489439 -19.4868 2.85053 -7.17486e-11 9.38064e-10 5.81957e-10 -1.28056e-10 1.62155e-09 1.00122e-09 -7.17485e-11 9.38065e-10 5.81966e-10 -7.73091 5.47488 -0.417314 -7.17519e-11 9.38062e-10 5.81943e-10 -2.90554 0.965183 -0.102902 -7.17471e-11 9.38065e-10 5.8195e-10 -10.2786 0.731801 -0.0259123 -7.17447e-11 9.38066e-10 5.81937e-10 -2.22167 -0.733487 0.20892 -2.03217e-16 0.0 -3.88251e-19 -6.94087 -37.1475 -11.1794 -0.257375 32.5997 0.321472 0.686926 21.5078 -3.64419 2.03217e-16 0.0 3.88251e-19 10.3635 -36.3418 15.1273 0.136986 30.773 -0.475309 0.897218 19.1139 -2.04181
1.05881 113.541 -33.532 -1.385 1.3854 8.1024 -1.06647 10.18 -4.12851 3.88001 -0.64823 -1.12428 -0.801994 3.09586 1.17585 -1.40382 11.4839 2.53762 -0.0 0.0 0.0 -0.0 0.0 0.0 1.8682e-14 9.04463e-14 -3.24267e-14 79.4663 14.5141 4.07495 -11.7504 -5.27502 21.128 -1.2887 30.4286 4.73523 5.09093e-10 -2.17741e-11 -4.93634e-10 8.66424e-10 -2.83055e-11 -8.6368e-10 5.09092e-10 -2.17651e-11 -4.93648e-10 7.73091 5.47488 0.417314 5.09087e-10 -2.17635e-11 -4.93644e-10 2.90554 0.965183 0.102902 5.09096e-10 -2.1763e-11 -4.93641e-10 10.2786 0.731801 0.0259123 5.09089e-10 -2.17603e-11 -4.93632e-10 2.22167 -0.733487 -0.20892 1.86659e-14 9.04478e-14 -3.26783e-14 -65.2582 31.5465 -25.342 9.86686 -4.06119 -17.5515 0.460526 -18.9256 2.76204 -6.63951e-11 3.86388e-10 -1.91075e-11 -1.12843e-10 6.70955e-10 -3.70144e-11 -6.63971e-11 3.86391e-10 -1.91008e-11 -7.73091 5.47488 -0.417314 -6.63955e-11 3.86388e-10 -1.91171e-11 -2.90554 0.965183 -0.102902 -6.6394e-11 3.8639e-10 -1.91149e-11 -10.2786 0.731801 -0.0259123 -6.63902e-11 3.86392e-10 -1.91271e-11 -2.22167 -0.733487 0.20892 -2.03217e-16 0.0 -3.88251e-19 -6.74986 -36.8754 -10.9895 -0.23637 31.0284 0.292235 0.674497 21.569 -3.5717 2.03217e-16 0.0 3.88251e-19 10.5008 -36.3739 15.1157 0.130783 30.2501 -0.465885 0.86362 19.0466 -1.93222
1.03176 112.887 -32.7646 -1.5049 1.4558 7.9294 -0.81019 10.0727 -4.16547 3.81913 -0.53009 -1.13259 -0.722953 3.16145 1.16378 -1.46066 11.7242 2.50393 -0.0 0.0 0.0 -0.0 0.0 0.0 2.26564e-14 7.4368e-14 -3.43564e-14 79.7737 14.0941 3.77314 -11.6419 -5.20046 20.9192 -1.28838 30.4251 4.73458 -6.0805e-11 -1.21323e-11 5.1799e-11 -1.04732e-10 -2.11476e-11 9.27999e-11 -6.08046e-11 -1.21226e-11 5.1786e-11 7.73091 5.47488 0.417314 -6.08106e-11 -1.21224e-11 5.17914e-11 2.90554 0.965183 0.102902 -6.07977e-11 -1.21217e-11 5.17904e-11 10.2786 0.731801 0.0259123 -6.08048e-11 -1.21212e-11 5.17974e-11 2.22167 -0.733487 -0.20892 2.26835e-14 7.43732e-14 -3.46378e-14 -65.7791 31.175 -25.0896 9.61924 -3.9133 -17.089 0.430439 -18.3207 2.66732 -3.58499e-11 -5.45389e-11 -5.21019e-10 -5.4915e-11 -8.86636e-11 -9.03667e-10 -3.5854e-11 -5.45349e-11 -5.21014e-10 -7.73091 5.47488 -0.417314 -3.58477e-11 -5.45372e-11 -5.21024e-10 -2.90554 0.965183 -0.102902 -3.58494e-11 -5.45369e-11 -5.21027e-10 -10.2786 0.731801 -0.0259123 -3.5844e-11 -5.4534e-11 -5.21038e-10 -2.22167 -0.733487 0.20892 -2.03217e-16 0.0 -3.88251e-19 -6.53924 -36.5275 -10.7635 -0.217876 29.497 0.263719 0.679749 21.6812 -3.55058 2.03217e-16 0.0 3.88251e-19 10.6185 -36.3178 15.0561 0.123739 29.67 -0.454829 0.841327 19.0264 -1.85751
1.00117 112.16 -31.9684 -1.6382 1.4896 7.7343 -0.592139 9.91979 -4.18804 3.74684 -0.388647 -1.13849 -0.67655 3.26304 1.15497 -1.49073 11.9845 2.48023 -0.0 0.0 0.0 -0.0 0.0 0.0 2.50236e-14 8.26913e-14 -3.40419e-14 80.047 13.6985 3.49681 -11.5223 -5.11924 20.6891 -1.29912 30.5394 4.75615 -2.5333e-10 -7.44249e-12 2.38659e-10 -4.33113e-10 -1.66852e-11 4.20564e-10 -2.53328e-10 -7.43296e-12 2.38647e-10 7.73091 5.47488 0.417314 -2.53335e-10 -7.43365e-12 2.38653e-10 2.90554 0.965183 0.102902 -2.5332e-10 -7.43286e-12 2.3865e-10 10.2786 0.731801 0.0259123 -2.53327e-10 -7.43375e-12 2.38656e-10 2.22167 -0.733487 -0.20892 2.50717e-14 8.26983e-14 -3.43401e-14 -66.3164 30.759 -24.7985 9.37244 -3.76858 -16.6298 0.399064 -17.6731 2.56654 -2.1041e-11 -1.83658e-10 -6.55989e-10 -2.75329e-11 -3.11065e-10 -1.13671e-09 -2.10461e-11 -1.83653e-10 -6.55986e-10 -7.73091 5.47488 -0.417314 -2.10378e-11 -1.83655e-10 -6.55993e-10 -2.90554 0.965183 -0.102902 -2.10409e-11 -1.83655e-10 -6.55998e-10 -10.2786 0.731801 -0.0259123 -2.10344e-11 -1.83652e-10 -6.56008e-10 -2.22167 -0.733487 0.20892 -2.03217e-16 0.0 -3.88251e-19 -6.34662 -36.1185 -10.5253 -0.202754 28.1175 0.237587 0.703116 21.8237 -3.5861 2.03217e-16 0.0 3.88251e-19 10.6838 -36.1445 14.9505 0.11551 29.0342 -0.442464 0.837888 19.0788 -1.84242
